{"title":"Dead Poets Society(1989)MPEG-4[DaScubaDude]","uid":15209223,"size":1431414681,"categoryP":"video","categoryS":"movies","magnet":"?xt=urn:btih:c75f684adc03f4f79d69d739c28041bb015c459c&amp;dn=Dead+Poets+Society%281989%29MPEG-4%5BDaScubaDude%5D&amp;tr=udp%3A%2F%2Ftracker.leechers-paradise.org%3A6969&amp;tr=udp%3A%2F%2Fzer0day.ch%3A1337&amp;tr=udp%3A%2F%2Fopen.demonii.com%3A1337&amp;tr=udp%3A%2F%2Ftracker.coppersurfer.tk%3A6969&amp;tr=udp%3A%2F%2Fexodus.desync.com%3A6969","seeders":1,"leechers":0,"uploader":"dascuba","files":1,"time":1467654000,"description":"Dead Poets Society (1989)\r\nPG | 2h 8min | Comedy, Drama | 9 June 1989 (USA)\r\nEnglish teacher John Keating inspires his students to look at poetry with a different perspective of authentic knowledge and feelings.\r\nDirector: Peter Weir\r\nWriter: Tom Schulman\r\nStars: Robin Williams, Robert Sean Leonard, Ethan Hawke \r\n\r\nGeneral\r\nComplete name                            : Dead Poet'sDEAD_POETS_SOCIETY_Title1.mp4\r\nFormat                                   : MPEG-4\r\nFormat profile                           : Base Media\r\nCodec ID                                 : isom (isom/iso2/avc1/mp41)\r\nFile size                                : 1.33 GiB\r\nDuration                                 : 2h 8mn\r\nOverall bit rate                         : 1 483 Kbps\r\nMovie name                               : DEAD_POETS_SOCIETY\r\nGenre                                    : Drama\r\nWriting application                      : Lavf54.6.100\r\n\r\nVideo\r\nID                                       : 1\r\nFormat                                   : AVC\r\nFormat/Info                              : Advanced Video Codec\r\nFormat profile                           :   \r\nFormat settings, CABAC                   : No\r\nFormat settings, ReFrames                : 6 frames\r\nCodec ID                                 : avc1\r\nCodec ID/Info                            : Advanced Video Coding\r\nDuration                                 : 2h 8mn\r\nBit rate                                 : 1 196 Kbps\r\nWidth                                    : 720 pixels\r\nHeight                                   : 404 pixels\r\nDisplay aspect ratio                     : 16:9\r\nFrame rate mode                          : Constant\r\nFrame rate                               : 29.970 (30000/1001) fps\r\nColor space                              : YUV\r\nChroma subsampling                       : 4:2:0\r\nBit depth                                : 8 bits\r\nScan type                                : Progressive\r\nBits/(Pixel*Frame)                       : 0.137\r\nStream size                              : 1.08 GiB (81%)\r\n\r\nAudio\r\nID                                       : 2\r\nFormat                                   : AAC\r\nFormat/Info                              : Advanced Audio Codec\r\nFormat profile                           : LC\r\nCodec ID                                 : 40\r\nDuration                                 : 2h 8mn\r\nBit rate mode                            : Constant\r\nBit rate                                 : 280 Kbps\r\nChannel(s)                               : 2 channels\r\nChannel(s)_Original                      : 6 channels\r\nChannel positions                        : Front: L C R, Side: L R, LFE\r\nSampling rate                            : 44.1 KHz\r\nFrame rate                               : 43.066 fps (1024 spf)\r\nCompression mode                         : Lossy\r\nStream size                              : 258 MiB (19%)\r\nDefault                                  : Yes\r\nAlternate group                          : 1","torrent":{"xt":"urn:btih:c75f684adc03f4f79d69d739c28041bb015c459c","amp;dn":"Dead+Poets+Society%281989%29MPEG-4%5BDaScubaDude%5D","amp;tr":["udp%3A%2F%2Ftracker.leechers-paradise.org%3A6969","udp%3A%2F%2Fzer0day.ch%3A1337","udp%3A%2F%2Fopen.demonii.com%3A1337","udp%3A%2F%2Ftracker.coppersurfer.tk%3A6969","udp%3A%2F%2Fexodus.desync.com%3A6969"],"infoHash":"c75f684adc03f4f79d69d739c28041bb015c459c","infoHashBuffer":{"type":"Buffer","data":[199,95,104,74,220,3,244,247,157,105,215,57,194,128,65,187,1,92,69,156]},"announce":[],"urlList":[]}}